<?xml version="1.0" standalone="no"?>
<!DOCTYPE svg PUBLIC "-//W3C//DTD SVG 20010904//EN"
 "http://www.w3.org/TR/2001/REC-SVG-20010904/DTD/svg10.dtd">
<svg version="1.0" xmlns="http://www.w3.org/2000/svg"
 width="460.000000pt" height="460.000000pt" viewBox="0 0 460.000000 460.000000"
 preserveAspectRatio="xMidYMid meet">

<g transform="translate(0.000000,460.000000) scale(0.100000,-0.100000)"
fill="#000000" stroke="none">
<path d="M0 2300 l0 -2300 2300 0 2300 0 0 2300 0 2300 -2300 0 -2300 0 0
-2300z m2582 2099 c188 -24 443 -103 642 -199 414 -200 716 -468 946 -839 220
-355 338 -859 301 -1281 -32 -354 -139 -663 -331 -955 -89 -135 -117 -170
-245 -309 -134 -146 -241 -239 -399 -344 -524 -349 -1136 -466 -1700 -323
-511 130 -997 484 -1309 953 -206 309 -337 753 -337 1136 0 227 40 495 101
682 97 295 344 675 588 904 30 28 59 56 65 62 24 22 184 141 239 177 99 64
316 174 429 216 120 45 298 95 403 112 162 26 434 30 607 8z"/>
<path d="M2355 4197 c-2 -7 -5 -51 -8 -99 l-3 -88 30 -4 c17 -3 64 -8 105 -11
303 -23 673 -186 946 -416 l83 -70 51 54 c75 79 92 100 89 108 -2 4 -61 43
-133 86 -71 44 -168 103 -215 132 -231 145 -541 259 -790 291 -52 7 -108 16
-123 21 -19 6 -29 5 -32 -4z"/>
<path d="M2065 4169 c-82 -8 -332 -69 -395 -96 -19 -8 -59 -24 -89 -34 -173
-61 -317 -142 -511 -288 -41 -31 -81 -63 -88 -71 -8 -8 -11 -9 -7 -3 4 9 1 11
-10 7 -12 -5 4 -27 67 -93 l83 -86 98 78 c340 269 671 406 1011 419 52 2 80 7
83 16 3 7 2 46 -2 87 l-7 75 -76 -1 c-43 -1 -113 -5 -157 -10z"/>
<path d="M2160 3938 c-451 -47 -942 -338 -1213 -718 -127 -179 -237 -432 -289
-663 -31 -138 -33 -467 -5 -592 53 -226 151 -459 272 -641 80 -121 310 -351
430 -431 239 -159 459 -247 721 -288 144 -23 395 -16 536 14 259 56 506 170
716 330 113 85 317 302 394 418 122 182 193 349 240 566 19 88 22 133 22 332
1 218 -1 236 -26 337 -133 525 -460 936 -928 1166 -201 98 -378 150 -589 171
-116 12 -159 12 -281 -1z m-717 -642 c112 -46 116 -180 8 -253 -89 -60 -221 8
-221 114 0 59 29 105 83 132 49 24 85 26 130 7z m1874 -42 c53 -40 67 -69 66
-139 -1 -150 -146 -351 -312 -435 -58 -29 -165 -26 -208 6 -47 35 -73 82 -73
133 0 59 28 106 100 167 30 26 83 86 118 135 61 87 103 128 152 148 38 16 127
7 157 -15z m-1527 -309 c104 -37 249 -150 297 -232 22 -37 25 -53 21 -104 -4
-53 -9 -64 -43 -99 -48 -49 -89 -63 -169 -58 -183 11 -399 227 -372 372 8 43
58 104 101 122 40 18 113 17 165 -1z m580 -600 c58 -30 67 -90 21 -136 -62
-61 -171 -20 -171 64 0 68 82 107 150 72z m517 -214 c56 -28 120 -102 159
-184 62 -131 59 -227 -9 -302 -47 -52 -90 -67 -157 -55 -133 24 -262 205 -264
370 -2 159 131 243 271 171z m-1041 -162 c59 -36 80 -118 48 -182 -9 -18 -56
-81 -103 -142 -48 -60 -121 -155 -163 -210 -89 -118 -135 -162 -181 -170 -54
-10 -117 12 -159 56 -32 33 -38 47 -38 82 0 55 22 88 180 269 69 79 137 159
150 178 81 115 134 154 195 145 21 -3 53 -15 71 -26z m1441 -489 c50 -30 66
-62 61 -121 -13 -129 -172 -181 -257 -84 -102 116 62 287 196 205z"/>
<path d="M747 3651 c-130 -138 -251 -318 -347 -516 -59 -121 -116 -285 -107
-308 3 -7 6 -5 6 5 1 10 14 24 31 33 60 31 135 13 173 -43 28 -41 89 -207 80
-216 -4 -3 -2 -6 4 -6 6 0 20 30 32 66 93 283 219 515 389 716 l81 96 -57 47
c-31 26 -84 72 -118 103 -112 105 -92 102 -167 23z"/>
<path d="M3663 3603 l-131 -118 62 -70 c89 -101 127 -150 187 -240 164 -249
269 -572 269 -832 l0 -63 188 2 187 3 -3 55 c-16 279 -138 697 -275 940 -86
154 -308 440 -341 440 -7 0 -71 -53 -143 -117z"/>
<path d="M217 2484 c-4 -22 -9 -76 -13 -121 l-7 -83 182 0 181 0 0 69 0 69
-65 -20 c-42 -13 -78 -18 -99 -14 -46 9 -148 80 -162 112 -11 27 -11 27 -17
-12z"/>
<path d="M202 2232 c-8 -21 6 -216 23 -322 55 -340 187 -642 387 -887 60 -74
87 -98 48 -43 -49 69 -50 137 -1 190 25 28 34 31 87 32 65 1 186 -32 219 -60
20 -17 20 -17 -1 8 -49 60 -170 267 -230 395 -85 182 -158 462 -165 627 -1 32
-5 61 -8 65 -3 5 -84 8 -180 8 -136 0 -175 -3 -179 -13z"/>
<path d="M4057 2243 c-4 -3 -7 -29 -7 -57 0 -62 -24 -231 -45 -323 -40 -176
-118 -358 -227 -533 -89 -144 -84 -134 -60 -121 30 16 128 13 162 -4 42 -22
83 -106 84 -172 1 -29 4 -53 8 -53 9 0 97 114 150 195 179 277 273 563 299
914 9 118 8 145 -3 152 -15 10 -352 12 -361 2z"/>
<path d="M1040 1060 c6 -11 16 -20 22 -20 6 0 3 9 -7 20 -10 11 -20 20 -22 20
-2 0 1 -9 7 -20z"/>
<path d="M3405 919 c-295 -235 -630 -373 -977 -405 l-78 -7 0 -180 0 -179 78
7 c154 14 393 68 568 129 165 58 378 164 472 235 l34 25 -24 9 c-12 4 -34 10
-48 12 -64 8 -109 27 -125 51 -26 41 -15 102 29 163 40 54 176 181 195 181 6
0 11 4 11 8 0 10 -22 32 -29 31 -4 0 -51 -37 -106 -80z"/>
<path d="M775 828 c23 -29 32 -35 43 -26 11 10 10 13 -9 20 -13 5 -32 17 -43
26 -11 9 -7 0 9 -20z"/>
<path d="M851 771 c-10 -7 -3 -18 30 -49 277 -253 624 -439 976 -521 116 -27
296 -51 385 -51 l68 0 0 73 c0 101 -9 149 -27 143 -25 -10 -212 14 -311 40
-147 38 -370 112 -395 132 -7 5 -34 15 -62 22 -27 7 -54 16 -60 21 -10 7 -103
36 -141 43 -40 8 -79 19 -89 25 -5 3 -15 6 -22 7 -7 1 -43 9 -80 18 -88 21
-117 28 -121 27 -1 -1 -18 5 -37 13 -20 9 -38 15 -40 15 -18 1 -65 34 -60 41
8 12 4 12 -14 1z"/>
</g>
</svg>
